<?xml version="1.0" encoding="utf-8" standalone="no"?>
<!DOCTYPE svg PUBLIC "-//W3C//DTD SVG 1.1//EN"
  "http://www.w3.org/Graphics/SVG/1.1/DTD/svg11.dtd">
<!-- Created with matplotlib (https://matplotlib.org/) -->
<svg height="343.888904pt" version="1.1" viewBox="0 0 1071.33875 343.888904" width="1071.33875pt" xmlns="http://www.w3.org/2000/svg" xmlns:xlink="http://www.w3.org/1999/xlink">
 <defs>
  <style type="text/css">
*{stroke-linecap:butt;stroke-linejoin:round;}
  </style>
 </defs>
 <g id="figure_1">
  <g id="patch_1">
   <path d="M 0 343.888904 
L 1071.33875 343.888904 
L 1071.33875 0 
L 0 0 
z
" style="fill:#ffffff;"/>
  </g>
  <g id="axes_1">
   <g id="patch_2">
    <path d="M 67.98875 284.802246 
L 548.201635 284.802246 
L 548.201635 45.8 
L 67.98875 45.8 
z
" style="fill:#e5e5e5;"/>
   </g>
   <g id="matplotlib.axis_1">
    <g id="xtick_1">
     <g id="line2d_1">
      <path clip-path="url(#p51f11b45f7)" d="M 88.610649 284.802246 
L 88.610649 45.8 
" style="fill:none;stroke:#ffffff;stroke-linecap:square;stroke-width:0.8;"/>
     </g>
     <g id="line2d_2">
      <defs>
       <path d="M 0 0 
L 0 3.5 
" id="m337d1a4da5" style="stroke:#555555;stroke-width:0.8;"/>
      </defs>
      <g>
       <use style="fill:#555555;stroke:#555555;stroke-width:0.8;" x="88.610649" xlink:href="#m337d1a4da5" y="284.802246"/>
      </g>
     </g>
     <g id="text_1">
      <!-- 2019-01 -->
      <defs>
       <path d="M 19.1875 8.296875 
L 53.609375 8.296875 
L 53.609375 0 
L 7.328125 0 
L 7.328125 8.296875 
Q 12.9375 14.109375 22.625 23.890625 
Q 32.328125 33.6875 34.8125 36.53125 
Q 39.546875 41.84375 41.421875 45.53125 
Q 43.3125 49.21875 43.3125 52.78125 
Q 43.3125 58.59375 39.234375 62.25 
Q 35.15625 65.921875 28.609375 65.921875 
Q 23.96875 65.921875 18.8125 64.3125 
Q 13.671875 62.703125 7.8125 59.421875 
L 7.8125 69.390625 
Q 13.765625 71.78125 18.9375 73 
Q 24.125 74.21875 28.421875 74.21875 
Q 39.75 74.21875 46.484375 68.546875 
Q 53.21875 62.890625 53.21875 53.421875 
Q 53.21875 48.921875 51.53125 44.890625 
Q 49.859375 40.875 45.40625 35.40625 
Q 44.1875 33.984375 37.640625 27.21875 
Q 31.109375 20.453125 19.1875 8.296875 
z
" id="DejaVuSans-50"/>
       <path d="M 31.78125 66.40625 
Q 24.171875 66.40625 20.328125 58.90625 
Q 16.5 51.421875 16.5 36.375 
Q 16.5 21.390625 20.328125 13.890625 
Q 24.171875 6.390625 31.78125 6.390625 
Q 39.453125 6.390625 43.28125 13.890625 
Q 47.125 21.390625 47.125 36.375 
Q 47.125 51.421875 43.28125 58.90625 
Q 39.453125 66.40625 31.78125 66.40625 
z
M 31.78125 74.21875 
Q 44.046875 74.21875 50.515625 64.515625 
Q 56.984375 54.828125 56.984375 36.375 
Q 56.984375 17.96875 50.515625 8.265625 
Q 44.046875 -1.421875 31.78125 -1.421875 
Q 19.53125 -1.421875 13.0625 8.265625 
Q 6.59375 17.96875 6.59375 36.375 
Q 6.59375 54.828125 13.0625 64.515625 
Q 19.53125 74.21875 31.78125 74.21875 
z
" id="DejaVuSans-48"/>
       <path d="M 12.40625 8.296875 
L 28.515625 8.296875 
L 28.515625 63.921875 
L 10.984375 60.40625 
L 10.984375 69.390625 
L 28.421875 72.90625 
L 38.28125 72.90625 
L 38.28125 8.296875 
L 54.390625 8.296875 
L 54.390625 0 
L 12.40625 0 
z
" id="DejaVuSans-49"/>
       <path d="M 10.984375 1.515625 
L 10.984375 10.5 
Q 14.703125 8.734375 18.5 7.8125 
Q 22.3125 6.890625 25.984375 6.890625 
Q 35.75 6.890625 40.890625 13.453125 
Q 46.046875 20.015625 46.78125 33.40625 
Q 43.953125 29.203125 39.59375 26.953125 
Q 35.25 24.703125 29.984375 24.703125 
Q 19.046875 24.703125 12.671875 31.3125 
Q 6.296875 37.9375 6.296875 49.421875 
Q 6.296875 60.640625 12.9375 67.421875 
Q 19.578125 74.21875 30.609375 74.21875 
Q 43.265625 74.21875 49.921875 64.515625 
Q 56.59375 54.828125 56.59375 36.375 
Q 56.59375 19.140625 48.40625 8.859375 
Q 40.234375 -1.421875 26.421875 -1.421875 
Q 22.703125 -1.421875 18.890625 -0.6875 
Q 15.09375 0.046875 10.984375 1.515625 
z
M 30.609375 32.421875 
Q 37.25 32.421875 41.125 36.953125 
Q 45.015625 41.5 45.015625 49.421875 
Q 45.015625 57.28125 41.125 61.84375 
Q 37.25 66.40625 30.609375 66.40625 
Q 23.96875 66.40625 20.09375 61.84375 
Q 16.21875 57.28125 16.21875 49.421875 
Q 16.21875 41.5 20.09375 36.953125 
Q 23.96875 32.421875 30.609375 32.421875 
z
" id="DejaVuSans-57"/>
       <path d="M 4.890625 31.390625 
L 31.203125 31.390625 
L 31.203125 23.390625 
L 4.890625 23.390625 
z
" id="DejaVuSans-45"/>
      </defs>
      <g style="fill:#555555;" transform="translate(51.385829 319.274092)rotate(-30)scale(0.1 -0.1)">
       <use xlink:href="#DejaVuSans-50"/>
       <use x="63.623047" xlink:href="#DejaVuSans-48"/>
       <use x="127.246094" xlink:href="#DejaVuSans-49"/>
       <use x="190.869141" xlink:href="#DejaVuSans-57"/>
       <use x="254.492188" xlink:href="#DejaVuSans-45"/>
       <use x="290.576172" xlink:href="#DejaVuSans-48"/>
       <use x="354.199219" xlink:href="#DejaVuSans-49"/>
      </g>
     </g>
    </g>
    <g id="xtick_2">
     <g id="line2d_3">
      <path clip-path="url(#p51f11b45f7)" d="M 159.762232 284.802246 
L 159.762232 45.8 
" style="fill:none;stroke:#ffffff;stroke-linecap:square;stroke-width:0.8;"/>
     </g>
     <g id="line2d_4">
      <g>
       <use style="fill:#555555;stroke:#555555;stroke-width:0.8;" x="159.762232" xlink:href="#m337d1a4da5" y="284.802246"/>
      </g>
     </g>
     <g id="text_2">
      <!-- 2019-03 -->
      <defs>
       <path d="M 40.578125 39.3125 
Q 47.65625 37.796875 51.625 33 
Q 55.609375 28.21875 55.609375 21.1875 
Q 55.609375 10.40625 48.1875 4.484375 
Q 40.765625 -1.421875 27.09375 -1.421875 
Q 22.515625 -1.421875 17.65625 -0.515625 
Q 12.796875 0.390625 7.625 2.203125 
L 7.625 11.71875 
Q 11.71875 9.328125 16.59375 8.109375 
Q 21.484375 6.890625 26.8125 6.890625 
Q 36.078125 6.890625 40.9375 10.546875 
Q 45.796875 14.203125 45.796875 21.1875 
Q 45.796875 27.640625 41.28125 31.265625 
Q 36.765625 34.90625 28.71875 34.90625 
L 20.21875 34.90625 
L 20.21875 43.015625 
L 29.109375 43.015625 
Q 36.375 43.015625 40.234375 45.921875 
Q 44.09375 48.828125 44.09375 54.296875 
Q 44.09375 59.90625 40.109375 62.90625 
Q 36.140625 65.921875 28.71875 65.921875 
Q 24.65625 65.921875 20.015625 65.03125 
Q 15.375 64.15625 9.8125 62.3125 
L 9.8125 71.09375 
Q 15.4375 72.65625 20.34375 73.4375 
Q 25.25 74.21875 29.59375 74.21875 
Q 40.828125 74.21875 47.359375 69.109375 
Q 53.90625 64.015625 53.90625 55.328125 
Q 53.90625 49.265625 50.4375 45.09375 
Q 46.96875 40.921875 40.578125 39.3125 
z
" id="DejaVuSans-51"/>
      </defs>
      <g style="fill:#555555;" transform="translate(122.537411 319.274092)rotate(-30)scale(0.1 -0.1)">
       <use xlink:href="#DejaVuSans-50"/>
       <use x="63.623047" xlink:href="#DejaVuSans-48"/>
       <use x="127.246094" xlink:href="#DejaVuSans-49"/>
       <use x="190.869141" xlink:href="#DejaVuSans-57"/>
       <use x="254.492188" xlink:href="#DejaVuSans-45"/>
       <use x="290.576172" xlink:href="#DejaVuSans-48"/>
       <use x="354.199219" xlink:href="#DejaVuSans-51"/>
      </g>
     </g>
    </g>
    <g id="xtick_3">
     <g id="line2d_5">
      <path clip-path="url(#p51f11b45f7)" d="M 233.325733 284.802246 
L 233.325733 45.8 
" style="fill:none;stroke:#ffffff;stroke-linecap:square;stroke-width:0.8;"/>
     </g>
     <g id="line2d_6">
      <g>
       <use style="fill:#555555;stroke:#555555;stroke-width:0.8;" x="233.325733" xlink:href="#m337d1a4da5" y="284.802246"/>
      </g>
     </g>
     <g id="text_3">
      <!-- 2019-05 -->
      <defs>
       <path d="M 10.796875 72.90625 
L 49.515625 72.90625 
L 49.515625 64.59375 
L 19.828125 64.59375 
L 19.828125 46.734375 
Q 21.96875 47.46875 24.109375 47.828125 
Q 26.265625 48.1875 28.421875 48.1875 
Q 40.625 48.1875 47.75 41.5 
Q 54.890625 34.8125 54.890625 23.390625 
Q 54.890625 11.625 47.5625 5.09375 
Q 40.234375 -1.421875 26.90625 -1.421875 
Q 22.3125 -1.421875 17.546875 -0.640625 
Q 12.796875 0.140625 7.71875 1.703125 
L 7.71875 11.625 
Q 12.109375 9.234375 16.796875 8.0625 
Q 21.484375 6.890625 26.703125 6.890625 
Q 35.15625 6.890625 40.078125 11.328125 
Q 45.015625 15.765625 45.015625 23.390625 
Q 45.015625 31 40.078125 35.4375 
Q 35.15625 39.890625 26.703125 39.890625 
Q 22.75 39.890625 18.8125 39.015625 
Q 14.890625 38.140625 10.796875 36.28125 
z
" id="DejaVuSans-53"/>
      </defs>
      <g style="fill:#555555;" transform="translate(196.100912 319.274092)rotate(-30)scale(0.1 -0.1)">
       <use xlink:href="#DejaVuSans-50"/>
       <use x="63.623047" xlink:href="#DejaVuSans-48"/>
       <use x="127.246094" xlink:href="#DejaVuSans-49"/>
       <use x="190.869141" xlink:href="#DejaVuSans-57"/>
       <use x="254.492188" xlink:href="#DejaVuSans-45"/>
       <use x="290.576172" xlink:href="#DejaVuSans-48"/>
       <use x="354.199219" xlink:href="#DejaVuSans-53"/>
      </g>
     </g>
    </g>
    <g id="xtick_4">
     <g id="line2d_7">
      <path clip-path="url(#p51f11b45f7)" d="M 306.889234 284.802246 
L 306.889234 45.8 
" style="fill:none;stroke:#ffffff;stroke-linecap:square;stroke-width:0.8;"/>
     </g>
     <g id="line2d_8">
      <g>
       <use style="fill:#555555;stroke:#555555;stroke-width:0.8;" x="306.889234" xlink:href="#m337d1a4da5" y="284.802246"/>
      </g>
     </g>
     <g id="text_4">
      <!-- 2019-07 -->
      <defs>
       <path d="M 8.203125 72.90625 
L 55.078125 72.90625 
L 55.078125 68.703125 
L 28.609375 0 
L 18.3125 0 
L 43.21875 64.59375 
L 8.203125 64.59375 
z
" id="DejaVuSans-55"/>
      </defs>
      <g style="fill:#555555;" transform="translate(269.664413 319.274092)rotate(-30)scale(0.1 -0.1)">
       <use xlink:href="#DejaVuSans-50"/>
       <use x="63.623047" xlink:href="#DejaVuSans-48"/>
       <use x="127.246094" xlink:href="#DejaVuSans-49"/>
       <use x="190.869141" xlink:href="#DejaVuSans-57"/>
       <use x="254.492188" xlink:href="#DejaVuSans-45"/>
       <use x="290.576172" xlink:href="#DejaVuSans-48"/>
       <use x="354.199219" xlink:href="#DejaVuSans-55"/>
      </g>
     </g>
    </g>
    <g id="xtick_5">
     <g id="line2d_9">
      <path clip-path="url(#p51f11b45f7)" d="M 381.658694 284.802246 
L 381.658694 45.8 
" style="fill:none;stroke:#ffffff;stroke-linecap:square;stroke-width:0.8;"/>
     </g>
     <g id="line2d_10">
      <g>
       <use style="fill:#555555;stroke:#555555;stroke-width:0.8;" x="381.658694" xlink:href="#m337d1a4da5" y="284.802246"/>
      </g>
     </g>
     <g id="text_5">
      <!-- 2019-09 -->
      <g style="fill:#555555;" transform="translate(344.433873 319.274092)rotate(-30)scale(0.1 -0.1)">
       <use xlink:href="#DejaVuSans-50"/>
       <use x="63.623047" xlink:href="#DejaVuSans-48"/>
       <use x="127.246094" xlink:href="#DejaVuSans-49"/>
       <use x="190.869141" xlink:href="#DejaVuSans-57"/>
       <use x="254.492188" xlink:href="#DejaVuSans-45"/>
       <use x="290.576172" xlink:href="#DejaVuSans-48"/>
       <use x="354.199219" xlink:href="#DejaVuSans-57"/>
      </g>
     </g>
    </g>
    <g id="xtick_6">
     <g id="line2d_11">
      <path clip-path="url(#p51f11b45f7)" d="M 455.222194 284.802246 
L 455.222194 45.8 
" style="fill:none;stroke:#ffffff;stroke-linecap:square;stroke-width:0.8;"/>
     </g>
     <g id="line2d_12">
      <g>
       <use style="fill:#555555;stroke:#555555;stroke-width:0.8;" x="455.222194" xlink:href="#m337d1a4da5" y="284.802246"/>
      </g>
     </g>
     <g id="text_6">
      <!-- 2019-11 -->
      <g style="fill:#555555;" transform="translate(417.997373 319.274092)rotate(-30)scale(0.1 -0.1)">
       <use xlink:href="#DejaVuSans-50"/>
       <use x="63.623047" xlink:href="#DejaVuSans-48"/>
       <use x="127.246094" xlink:href="#DejaVuSans-49"/>
       <use x="190.869141" xlink:href="#DejaVuSans-57"/>
       <use x="254.492188" xlink:href="#DejaVuSans-45"/>
       <use x="290.576172" xlink:href="#DejaVuSans-49"/>
       <use x="354.199219" xlink:href="#DejaVuSans-49"/>
      </g>
     </g>
    </g>
    <g id="xtick_7">
     <g id="line2d_13">
      <path clip-path="url(#p51f11b45f7)" d="M 528.785695 284.802246 
L 528.785695 45.8 
" style="fill:none;stroke:#ffffff;stroke-linecap:square;stroke-width:0.8;"/>
     </g>
     <g id="line2d_14">
      <g>
       <use style="fill:#555555;stroke:#555555;stroke-width:0.8;" x="528.785695" xlink:href="#m337d1a4da5" y="284.802246"/>
      </g>
     </g>
     <g id="text_7">
      <!-- 2020-01 -->
      <g style="fill:#555555;" transform="translate(491.560874 319.274092)rotate(-30)scale(0.1 -0.1)">
       <use xlink:href="#DejaVuSans-50"/>
       <use x="63.623047" xlink:href="#DejaVuSans-48"/>
       <use x="127.246094" xlink:href="#DejaVuSans-50"/>
       <use x="190.869141" xlink:href="#DejaVuSans-48"/>
       <use x="254.492188" xlink:href="#DejaVuSans-45"/>
       <use x="290.576172" xlink:href="#DejaVuSans-48"/>
       <use x="354.199219" xlink:href="#DejaVuSans-49"/>
      </g>
     </g>
    </g>
    <g id="text_8">
     <!-- Data -->
     <defs>
      <path d="M 19.671875 64.796875 
L 19.671875 8.109375 
L 31.59375 8.109375 
Q 46.6875 8.109375 53.6875 14.9375 
Q 60.6875 21.78125 60.6875 36.53125 
Q 60.6875 51.171875 53.6875 57.984375 
Q 46.6875 64.796875 31.59375 64.796875 
z
M 9.8125 72.90625 
L 30.078125 72.90625 
Q 51.265625 72.90625 61.171875 64.09375 
Q 71.09375 55.28125 71.09375 36.53125 
Q 71.09375 17.671875 61.125 8.828125 
Q 51.171875 0 30.078125 0 
L 9.8125 0 
z
" id="DejaVuSans-68"/>
      <path d="M 34.28125 27.484375 
Q 23.390625 27.484375 19.1875 25 
Q 14.984375 22.515625 14.984375 16.5 
Q 14.984375 11.71875 18.140625 8.90625 
Q 21.296875 6.109375 26.703125 6.109375 
Q 34.1875 6.109375 38.703125 11.40625 
Q 43.21875 16.703125 43.21875 25.484375 
L 43.21875 27.484375 
z
M 52.203125 31.203125 
L 52.203125 0 
L 43.21875 0 
L 43.21875 8.296875 
Q 40.140625 3.328125 35.546875 0.953125 
Q 30.953125 -1.421875 24.3125 -1.421875 
Q 15.921875 -1.421875 10.953125 3.296875 
Q 6 8.015625 6 15.921875 
Q 6 25.140625 12.171875 29.828125 
Q 18.359375 34.515625 30.609375 34.515625 
L 43.21875 34.515625 
L 43.21875 35.40625 
Q 43.21875 41.609375 39.140625 45 
Q 35.0625 48.390625 27.6875 48.390625 
Q 23 48.390625 18.546875 47.265625 
Q 14.109375 46.140625 10.015625 43.890625 
L 10.015625 52.203125 
Q 14.9375 54.109375 19.578125 55.046875 
Q 24.21875 56 28.609375 56 
Q 40.484375 56 46.34375 49.84375 
Q 52.203125 43.703125 52.203125 31.203125 
z
" id="DejaVuSans-97"/>
      <path d="M 18.3125 70.21875 
L 18.3125 54.6875 
L 36.8125 54.6875 
L 36.8125 47.703125 
L 18.3125 47.703125 
L 18.3125 18.015625 
Q 18.3125 11.328125 20.140625 9.421875 
Q 21.96875 7.515625 27.59375 7.515625 
L 36.8125 7.515625 
L 36.8125 0 
L 27.59375 0 
Q 17.1875 0 13.234375 3.875 
Q 9.28125 7.765625 9.28125 18.015625 
L 9.28125 47.703125 
L 2.6875 47.703125 
L 2.6875 54.6875 
L 9.28125 54.6875 
L 9.28125 70.21875 
z
" id="DejaVuSans-116"/>
     </defs>
     <g style="fill:#555555;" transform="translate(293.769255 334.193279)scale(0.12 -0.12)">
      <use xlink:href="#DejaVuSans-68"/>
      <use x="77.001953" xlink:href="#DejaVuSans-97"/>
      <use x="138.28125" xlink:href="#DejaVuSans-116"/>
      <use x="177.490234" xlink:href="#DejaVuSans-97"/>
     </g>
    </g>
   </g>
   <g id="matplotlib.axis_2">
    <g id="ytick_1">
     <g id="line2d_15">
      <path clip-path="url(#p51f11b45f7)" d="M 67.98875 248.971983 
L 548.201635 248.971983 
" style="fill:none;stroke:#ffffff;stroke-linecap:square;stroke-width:0.8;"/>
     </g>
     <g id="line2d_16">
      <defs>
       <path d="M 0 0 
L -3.5 0 
" id="m184bf112ee" style="stroke:#555555;stroke-width:0.8;"/>
      </defs>
      <g>
       <use style="fill:#555555;stroke:#555555;stroke-width:0.8;" x="67.98875" xlink:href="#m184bf112ee" y="248.971983"/>
      </g>
     </g>
     <g id="text_9">
      <!-- 70000 -->
      <g style="fill:#555555;" transform="translate(29.17625 252.771202)scale(0.1 -0.1)">
       <use xlink:href="#DejaVuSans-55"/>
       <use x="63.623047" xlink:href="#DejaVuSans-48"/>
       <use x="127.246094" xlink:href="#DejaVuSans-48"/>
       <use x="190.869141" xlink:href="#DejaVuSans-48"/>
       <use x="254.492188" xlink:href="#DejaVuSans-48"/>
      </g>
     </g>
    </g>
    <g id="ytick_2">
     <g id="line2d_17">
      <path clip-path="url(#p51f11b45f7)" d="M 67.98875 210.143796 
L 548.201635 210.143796 
" style="fill:none;stroke:#ffffff;stroke-linecap:square;stroke-width:0.8;"/>
     </g>
     <g id="line2d_18">
      <g>
       <use style="fill:#555555;stroke:#555555;stroke-width:0.8;" x="67.98875" xlink:href="#m184bf112ee" y="210.143796"/>
      </g>
     </g>
     <g id="text_10">
      <!-- 80000 -->
      <defs>
       <path d="M 31.78125 34.625 
Q 24.75 34.625 20.71875 30.859375 
Q 16.703125 27.09375 16.703125 20.515625 
Q 16.703125 13.921875 20.71875 10.15625 
Q 24.75 6.390625 31.78125 6.390625 
Q 38.8125 6.390625 42.859375 10.171875 
Q 46.921875 13.96875 46.921875 20.515625 
Q 46.921875 27.09375 42.890625 30.859375 
Q 38.875 34.625 31.78125 34.625 
z
M 21.921875 38.8125 
Q 15.578125 40.375 12.03125 44.71875 
Q 8.5 49.078125 8.5 55.328125 
Q 8.5 64.0625 14.71875 69.140625 
Q 20.953125 74.21875 31.78125 74.21875 
Q 42.671875 74.21875 48.875 69.140625 
Q 55.078125 64.0625 55.078125 55.328125 
Q 55.078125 49.078125 51.53125 44.71875 
Q 48 40.375 41.703125 38.8125 
Q 48.828125 37.15625 52.796875 32.3125 
Q 56.78125 27.484375 56.78125 20.515625 
Q 56.78125 9.90625 50.3125 4.234375 
Q 43.84375 -1.421875 31.78125 -1.421875 
Q 19.734375 -1.421875 13.25 4.234375 
Q 6.78125 9.90625 6.78125 20.515625 
Q 6.78125 27.484375 10.78125 32.3125 
Q 14.796875 37.15625 21.921875 38.8125 
z
M 18.3125 54.390625 
Q 18.3125 48.734375 21.84375 45.5625 
Q 25.390625 42.390625 31.78125 42.390625 
Q 38.140625 42.390625 41.71875 45.5625 
Q 45.3125 48.734375 45.3125 54.390625 
Q 45.3125 60.0625 41.71875 63.234375 
Q 38.140625 66.40625 31.78125 66.40625 
Q 25.390625 66.40625 21.84375 63.234375 
Q 18.3125 60.0625 18.3125 54.390625 
z
" id="DejaVuSans-56"/>
      </defs>
      <g style="fill:#555555;" transform="translate(29.17625 213.943015)scale(0.1 -0.1)">
       <use xlink:href="#DejaVuSans-56"/>
       <use x="63.623047" xlink:href="#DejaVuSans-48"/>
       <use x="127.246094" xlink:href="#DejaVuSans-48"/>
       <use x="190.869141" xlink:href="#DejaVuSans-48"/>
       <use x="254.492188" xlink:href="#DejaVuSans-48"/>
      </g>
     </g>
    </g>
    <g id="ytick_3">
     <g id="line2d_19">
      <path clip-path="url(#p51f11b45f7)" d="M 67.98875 171.315609 
L 548.201635 171.315609 
" style="fill:none;stroke:#ffffff;stroke-linecap:square;stroke-width:0.8;"/>
     </g>
     <g id="line2d_20">
      <g>
       <use style="fill:#555555;stroke:#555555;stroke-width:0.8;" x="67.98875" xlink:href="#m184bf112ee" y="171.315609"/>
      </g>
     </g>
     <g id="text_11">
      <!-- 90000 -->
      <g style="fill:#555555;" transform="translate(29.17625 175.114828)scale(0.1 -0.1)">
       <use xlink:href="#DejaVuSans-57"/>
       <use x="63.623047" xlink:href="#DejaVuSans-48"/>
       <use x="127.246094" xlink:href="#DejaVuSans-48"/>
       <use x="190.869141" xlink:href="#DejaVuSans-48"/>
       <use x="254.492188" xlink:href="#DejaVuSans-48"/>
      </g>
     </g>
    </g>
    <g id="ytick_4">
     <g id="line2d_21">
      <path clip-path="url(#p51f11b45f7)" d="M 67.98875 132.487422 
L 548.201635 132.487422 
" style="fill:none;stroke:#ffffff;stroke-linecap:square;stroke-width:0.8;"/>
     </g>
     <g id="line2d_22">
      <g>
       <use style="fill:#555555;stroke:#555555;stroke-width:0.8;" x="67.98875" xlink:href="#m184bf112ee" y="132.487422"/>
      </g>
     </g>
     <g id="text_12">
      <!-- 100000 -->
      <g style="fill:#555555;" transform="translate(22.81375 136.286641)scale(0.1 -0.1)">
       <use xlink:href="#DejaVuSans-49"/>
       <use x="63.623047" xlink:href="#DejaVuSans-48"/>
       <use x="127.246094" xlink:href="#DejaVuSans-48"/>
       <use x="190.869141" xlink:href="#DejaVuSans-48"/>
       <use x="254.492188" xlink:href="#DejaVuSans-48"/>
       <use x="318.115234" xlink:href="#DejaVuSans-48"/>
      </g>
     </g>
    </g>
    <g id="ytick_5">
     <g id="line2d_23">
      <path clip-path="url(#p51f11b45f7)" d="M 67.98875 93.659235 
L 548.201635 93.659235 
" style="fill:none;stroke:#ffffff;stroke-linecap:square;stroke-width:0.8;"/>
     </g>
     <g id="line2d_24">
      <g>
       <use style="fill:#555555;stroke:#555555;stroke-width:0.8;" x="67.98875" xlink:href="#m184bf112ee" y="93.659235"/>
      </g>
     </g>
     <g id="text_13">
      <!-- 110000 -->
      <g style="fill:#555555;" transform="translate(22.81375 97.458454)scale(0.1 -0.1)">
       <use xlink:href="#DejaVuSans-49"/>
       <use x="63.623047" xlink:href="#DejaVuSans-49"/>
       <use x="127.246094" xlink:href="#DejaVuSans-48"/>
       <use x="190.869141" xlink:href="#DejaVuSans-48"/>
       <use x="254.492188" xlink:href="#DejaVuSans-48"/>
       <use x="318.115234" xlink:href="#DejaVuSans-48"/>
      </g>
     </g>
    </g>
    <g id="ytick_6">
     <g id="line2d_25">
      <path clip-path="url(#p51f11b45f7)" d="M 67.98875 54.831048 
L 548.201635 54.831048 
" style="fill:none;stroke:#ffffff;stroke-linecap:square;stroke-width:0.8;"/>
     </g>
     <g id="line2d_26">
      <g>
       <use style="fill:#555555;stroke:#555555;stroke-width:0.8;" x="67.98875" xlink:href="#m184bf112ee" y="54.831048"/>
      </g>
     </g>
     <g id="text_14">
      <!-- 120000 -->
      <g style="fill:#555555;" transform="translate(22.81375 58.630267)scale(0.1 -0.1)">
       <use xlink:href="#DejaVuSans-49"/>
       <use x="63.623047" xlink:href="#DejaVuSans-50"/>
       <use x="127.246094" xlink:href="#DejaVuSans-48"/>
       <use x="190.869141" xlink:href="#DejaVuSans-48"/>
       <use x="254.492188" xlink:href="#DejaVuSans-48"/>
       <use x="318.115234" xlink:href="#DejaVuSans-48"/>
      </g>
     </g>
    </g>
    <g id="text_15">
     <!-- Pontos -->
     <defs>
      <path d="M 19.671875 64.796875 
L 19.671875 37.40625 
L 32.078125 37.40625 
Q 38.96875 37.40625 42.71875 40.96875 
Q 46.484375 44.53125 46.484375 51.125 
Q 46.484375 57.671875 42.71875 61.234375 
Q 38.96875 64.796875 32.078125 64.796875 
z
M 9.8125 72.90625 
L 32.078125 72.90625 
Q 44.34375 72.90625 50.609375 67.359375 
Q 56.890625 61.8125 56.890625 51.125 
Q 56.890625 40.328125 50.609375 34.8125 
Q 44.34375 29.296875 32.078125 29.296875 
L 19.671875 29.296875 
L 19.671875 0 
L 9.8125 0 
z
" id="DejaVuSans-80"/>
      <path d="M 30.609375 48.390625 
Q 23.390625 48.390625 19.1875 42.75 
Q 14.984375 37.109375 14.984375 27.296875 
Q 14.984375 17.484375 19.15625 11.84375 
Q 23.34375 6.203125 30.609375 6.203125 
Q 37.796875 6.203125 41.984375 11.859375 
Q 46.1875 17.53125 46.1875 27.296875 
Q 46.1875 37.015625 41.984375 42.703125 
Q 37.796875 48.390625 30.609375 48.390625 
z
M 30.609375 56 
Q 42.328125 56 49.015625 48.375 
Q 55.71875 40.765625 55.71875 27.296875 
Q 55.71875 13.875 49.015625 6.21875 
Q 42.328125 -1.421875 30.609375 -1.421875 
Q 18.84375 -1.421875 12.171875 6.21875 
Q 5.515625 13.875 5.515625 27.296875 
Q 5.515625 40.765625 12.171875 48.375 
Q 18.84375 56 30.609375 56 
z
" id="DejaVuSans-111"/>
      <path d="M 54.890625 33.015625 
L 54.890625 0 
L 45.90625 0 
L 45.90625 32.71875 
Q 45.90625 40.484375 42.875 44.328125 
Q 39.84375 48.1875 33.796875 48.1875 
Q 26.515625 48.1875 22.3125 43.546875 
Q 18.109375 38.921875 18.109375 30.90625 
L 18.109375 0 
L 9.078125 0 
L 9.078125 54.6875 
L 18.109375 54.6875 
L 18.109375 46.1875 
Q 21.34375 51.125 25.703125 53.5625 
Q 30.078125 56 35.796875 56 
Q 45.21875 56 50.046875 50.171875 
Q 54.890625 44.34375 54.890625 33.015625 
z
" id="DejaVuSans-110"/>
      <path d="M 44.28125 53.078125 
L 44.28125 44.578125 
Q 40.484375 46.53125 36.375 47.5 
Q 32.28125 48.484375 27.875 48.484375 
Q 21.1875 48.484375 17.84375 46.4375 
Q 14.5 44.390625 14.5 40.28125 
Q 14.5 37.15625 16.890625 35.375 
Q 19.28125 33.59375 26.515625 31.984375 
L 29.59375 31.296875 
Q 39.15625 29.25 43.1875 25.515625 
Q 47.21875 21.78125 47.21875 15.09375 
Q 47.21875 7.46875 41.1875 3.015625 
Q 35.15625 -1.421875 24.609375 -1.421875 
Q 20.21875 -1.421875 15.453125 -0.5625 
Q 10.6875 0.296875 5.421875 2 
L 5.421875 11.28125 
Q 10.40625 8.6875 15.234375 7.390625 
Q 20.0625 6.109375 24.8125 6.109375 
Q 31.15625 6.109375 34.5625 8.28125 
Q 37.984375 10.453125 37.984375 14.40625 
Q 37.984375 18.0625 35.515625 20.015625 
Q 33.0625 21.96875 24.703125 23.78125 
L 21.578125 24.515625 
Q 13.234375 26.265625 9.515625 29.90625 
Q 5.8125 33.546875 5.8125 39.890625 
Q 5.8125 47.609375 11.28125 51.796875 
Q 16.75 56 26.8125 56 
Q 31.78125 56 36.171875 55.265625 
Q 40.578125 54.546875 44.28125 53.078125 
z
" id="DejaVuSans-115"/>
     </defs>
     <g style="fill:#555555;" transform="translate(16.318125 185.324248)rotate(-90)scale(0.12 -0.12)">
      <use xlink:href="#DejaVuSans-80"/>
      <use x="56.677734" xlink:href="#DejaVuSans-111"/>
      <use x="117.859375" xlink:href="#DejaVuSans-110"/>
      <use x="181.238281" xlink:href="#DejaVuSans-116"/>
      <use x="220.447266" xlink:href="#DejaVuSans-111"/>
      <use x="281.628906" xlink:href="#DejaVuSans-115"/>
     </g>
    </g>
   </g>
   <g id="line2d_27">
    <path clip-path="url(#p51f11b45f7)" d="M 89.816608 167.386197 
L 91.022567 165.242881 
L 92.228526 164.16734 
L 95.846404 164.7187 
L 97.052363 163.425722 
L 98.258322 157.286985 
L 99.464281 156.537601 
L 100.67024 157.112258 
L 104.288117 153.943878 
L 105.494076 155.566896 
L 106.700035 154.258387 
L 107.905994 150.538646 
L 109.111953 147.642064 
L 112.72983 147.979869 
L 113.935789 151.501585 
L 115.141748 145.852084 
L 116.347707 141.50721 
L 121.171543 150.177544 
L 122.377502 149.420394 
L 123.583461 144.151409 
L 124.78942 142.606048 
L 125.995379 140.792771 
L 129.613256 137.966079 
L 130.819215 139.045503 
L 132.025174 153.314862 
L 133.231133 154.20791 
L 134.437093 150.569709 
L 138.05497 154.18073 
L 139.260929 147.366383 
L 140.466888 148.632182 
L 141.672847 140.194817 
L 142.878806 142.093516 
L 146.496683 146.038459 
L 147.702642 141.577101 
L 148.908601 145.902561 
L 150.11456 144.39991 
L 151.320519 140.695701 
L 154.938396 143.204002 
L 156.144355 141.794539 
L 157.350314 142.943853 
L 158.556273 149.63395 
L 159.762232 153.439112 
L 166.997986 154.464176 
L 168.203945 150.484287 
L 171.821822 140.148223 
L 173.027781 140.920904 
L 174.23374 136.742991 
L 175.4397 137.903954 
L 176.645659 135.838295 
L 180.263536 132.510719 
L 181.469495 134.087143 
L 182.675454 140.093864 
L 183.881413 145.188122 
L 185.087372 156.813281 
L 188.705249 157.096727 
L 189.911208 150.70949 
L 191.117167 163.926605 
L 192.323126 154.273918 
L 193.529085 150.290146 
L 197.146962 147.809025 
L 198.352921 150.398865 
L 199.55888 153.87787 
L 200.764839 146.803375 
L 201.970798 143.716534 
L 205.588675 142.703118 
L 206.794634 146.884914 
L 208.000593 148.201189 
L 209.206552 152.852806 
L 210.412511 160.152505 
L 214.030388 159.344879 
L 215.236347 154.491356 
L 216.442306 158.56055 
L 217.648266 153.540065 
L 222.472102 153.501237 
L 223.678061 148.317674 
L 224.88402 151.726789 
L 226.089979 145.875381 
L 227.295938 147.102352 
L 230.913815 147.288727 
L 232.119774 146.648062 
L 234.531692 149.851387 
L 235.737651 147.987634 
L 239.355528 151.86657 
L 240.561487 154.273918 
L 241.767446 149.583473 
L 242.973405 152.647017 
L 244.179364 154.782567 
L 247.797241 164.609981 
L 249.0032 163.192752 
L 250.209159 165.013794 
L 251.415118 171.222422 
L 252.621077 171.342789 
L 256.238954 163.759644 
L 257.444913 153.901167 
L 258.650873 154.382637 
L 259.856832 156.133788 
L 261.062791 157.228743 
L 264.680668 152.429579 
L 265.886627 146.492749 
L 267.092586 145.817139 
L 268.298545 142.36143 
L 269.504504 144.019394 
L 273.122381 144.058222 
L 274.32834 142.660407 
L 275.534299 148.02258 
L 276.740258 143.3399 
L 277.946217 140.948084 
L 281.564094 142.322602 
L 282.770053 136.525554 
L 283.976012 139.006675 
L 285.181971 137.247758 
L 286.38793 140.097747 
L 290.005807 141.716882 
L 291.211766 134.801582 
L 292.417725 131.310928 
L 294.829643 124.671308 
L 298.44752 124.48105 
L 299.65348 132.12632 
L 300.859439 129.81216 
L 302.065398 129.676261 
L 303.271357 128.732736 
L 306.889234 127.284445 
L 308.095193 130.138317 
L 309.301152 124.554823 
L 310.507111 118.369493 
L 311.71307 116.610576 
L 315.330947 114.898253 
L 317.742865 109.901066 
L 318.948824 112.506437 
L 320.154783 117.321132 
L 324.978619 117.829782 
L 326.184578 117.515273 
L 327.390537 114.172166 
L 328.596496 119.083932 
L 332.214373 117.154171 
L 333.420332 118.105462 
L 334.626291 116.490209 
L 335.83225 122.178538 
L 337.038209 121.541756 
L 340.656087 118.963565 
L 341.862046 121.099115 
L 343.068005 125.451755 
L 344.273964 124.23255 
L 345.479923 122.104765 
L 349.0978 132.106906 
L 350.303759 124.085002 
L 351.509718 121.68542 
L 352.715677 116.509623 
L 353.921636 116.971679 
L 357.539513 125.051824 
L 358.745472 119.678003 
L 359.951431 131.485655 
L 361.15739 136.14892 
L 362.363349 133.240689 
L 365.981226 134.549199 
L 367.187185 135.508255 
L 368.393144 127.820274 
L 369.599103 132.444711 
L 370.805062 141.546038 
L 374.422939 146.349085 
L 376.834857 139.499793 
L 378.040816 130.452825 
L 379.246775 128.080423 
L 382.864653 130.056778 
L 384.070612 133.726041 
L 385.276571 127.824157 
L 386.48253 123.77826 
L 387.688489 121.091349 
L 391.306366 120.136176 
L 392.512325 120.714716 
L 393.718284 119.107229 
L 394.924243 115.515622 
L 396.130202 118.893674 
L 399.748079 118.198649 
L 400.954038 114.560448 
L 402.159997 114.890488 
L 403.365956 115.639872 
L 404.571915 113.783884 
L 408.189792 114.478909 
L 409.395751 117.437617 
L 410.60171 115.088511 
L 411.807669 111.834709 
L 413.013628 112.770469 
L 416.631505 114.063447 
L 417.837464 116.750358 
L 419.043423 128.484236 
L 420.249382 126.601069 
L 421.455341 122.582352 
L 425.073219 130.262567 
L 426.279178 132.561196 
L 427.485137 127.637782 
L 428.691096 125.432341 
L 429.897055 117.608461 
L 434.720891 115.053566 
L 435.92685 111.430896 
L 437.132809 113.011203 
L 438.338768 114.125572 
L 441.956645 109.105088 
L 443.162604 103.828337 
L 444.368563 103.195438 
L 445.574522 105.362051 
L 446.780481 103.894345 
L 450.398358 100.698785 
L 451.604317 103.148844 
L 452.810276 99.840682 
L 454.016235 104.453471 
L 455.222194 100.66384 
L 458.840071 99.091298 
L 460.04603 99.673721 
L 461.251989 100.120245 
L 462.457948 95.286136 
L 463.663907 102.865398 
L 467.281785 100.590066 
L 468.487744 106.142497 
L 469.693703 109.524432 
L 470.899662 107.02778 
L 475.723498 107.843172 
L 476.929457 110.673747 
L 479.341375 103.37793 
L 480.547334 98.737962 
L 484.165211 99.778557 
L 485.37117 105.078605 
L 486.577129 102.558656 
L 487.783088 100.298855 
L 488.989047 100.520176 
L 492.606924 97.305202 
L 493.812883 97.712898 
L 495.018842 92.490507 
L 496.224801 91.244122 
L 497.43076 89.287181 
L 501.048637 89.865721 
L 502.254596 91.049981 
L 503.460555 89.916198 
L 504.666514 85.117034 
L 505.872474 83.699805 
L 509.490351 86.297411 
L 510.69631 83.501781 
L 511.902269 76.904872 
L 513.108228 73.736492 
L 514.314187 73.77532 
L 517.932064 70.894269 
L 521.549941 65.691292 
L 522.7559 68.288898 
L 526.373777 70.502104 
L 526.373777 70.502104 
" style="fill:none;stroke:#0000ff;stroke-linecap:square;stroke-width:1.5;"/>
   </g>
   <g id="patch_3">
    <path d="M 67.98875 284.802246 
L 67.98875 45.8 
" style="fill:none;stroke:#ffffff;stroke-linecap:square;stroke-linejoin:miter;"/>
   </g>
   <g id="patch_4">
    <path d="M 548.201635 284.802246 
L 548.201635 45.8 
" style="fill:none;stroke:#ffffff;stroke-linecap:square;stroke-linejoin:miter;"/>
   </g>
   <g id="patch_5">
    <path d="M 67.98875 284.802246 
L 548.201635 284.802246 
" style="fill:none;stroke:#ffffff;stroke-linecap:square;stroke-linejoin:miter;"/>
   </g>
   <g id="patch_6">
    <path d="M 67.98875 45.8 
L 548.201635 45.8 
" style="fill:none;stroke:#ffffff;stroke-linecap:square;stroke-linejoin:miter;"/>
   </g>
   <g id="text_16">
    <!-- 2019 -->
    <g transform="translate(289.771193 39.8)scale(0.144 -0.144)">
     <use xlink:href="#DejaVuSans-50"/>
     <use x="63.623047" xlink:href="#DejaVuSans-48"/>
     <use x="127.246094" xlink:href="#DejaVuSans-49"/>
     <use x="190.869141" xlink:href="#DejaVuSans-57"/>
    </g>
   </g>
  </g>
  <g id="axes_2">
   <g id="patch_7">
    <path d="M 583.925865 284.802246 
L 1064.13875 284.802246 
L 1064.13875 45.8 
L 583.925865 45.8 
z
" style="fill:#e5e5e5;"/>
   </g>
   <g id="matplotlib.axis_3">
    <g id="xtick_8">
     <g id="line2d_28">
      <path clip-path="url(#pffa0d83f72)" d="M 604.551086 284.802246 
L 604.551086 45.8 
" style="fill:none;stroke:#ffffff;stroke-linecap:square;stroke-width:0.8;"/>
     </g>
     <g id="line2d_29">
      <g>
       <use style="fill:#555555;stroke:#555555;stroke-width:0.8;" x="604.551086" xlink:href="#m337d1a4da5" y="284.802246"/>
      </g>
     </g>
     <g id="text_17">
      <!-- 2020-01 -->
      <g style="fill:#555555;" transform="translate(567.326265 319.274092)rotate(-30)scale(0.1 -0.1)">
       <use xlink:href="#DejaVuSans-50"/>
       <use x="63.623047" xlink:href="#DejaVuSans-48"/>
       <use x="127.246094" xlink:href="#DejaVuSans-50"/>
       <use x="190.869141" xlink:href="#DejaVuSans-48"/>
       <use x="254.492188" xlink:href="#DejaVuSans-45"/>
       <use x="290.576172" xlink:href="#DejaVuSans-48"/>
       <use x="354.199219" xlink:href="#DejaVuSans-49"/>
      </g>
     </g>
    </g>
    <g id="xtick_9">
     <g id="line2d_30">
      <path clip-path="url(#pffa0d83f72)" d="M 676.709296 284.802246 
L 676.709296 45.8 
" style="fill:none;stroke:#ffffff;stroke-linecap:square;stroke-width:0.8;"/>
     </g>
     <g id="line2d_31">
      <g>
       <use style="fill:#555555;stroke:#555555;stroke-width:0.8;" x="676.709296" xlink:href="#m337d1a4da5" y="284.802246"/>
      </g>
     </g>
     <g id="text_18">
      <!-- 2020-03 -->
      <g style="fill:#555555;" transform="translate(639.484475 319.274092)rotate(-30)scale(0.1 -0.1)">
       <use xlink:href="#DejaVuSans-50"/>
       <use x="63.623047" xlink:href="#DejaVuSans-48"/>
       <use x="127.246094" xlink:href="#DejaVuSans-50"/>
       <use x="190.869141" xlink:href="#DejaVuSans-48"/>
       <use x="254.492188" xlink:href="#DejaVuSans-45"/>
       <use x="290.576172" xlink:href="#DejaVuSans-48"/>
       <use x="354.199219" xlink:href="#DejaVuSans-51"/>
      </g>
     </g>
    </g>
    <g id="xtick_10">
     <g id="line2d_32">
      <path clip-path="url(#pffa0d83f72)" d="M 750.070142 284.802246 
L 750.070142 45.8 
" style="fill:none;stroke:#ffffff;stroke-linecap:square;stroke-width:0.8;"/>
     </g>
     <g id="line2d_33">
      <g>
       <use style="fill:#555555;stroke:#555555;stroke-width:0.8;" x="750.070142" xlink:href="#m337d1a4da5" y="284.802246"/>
      </g>
     </g>
     <g id="text_19">
      <!-- 2020-05 -->
      <g style="fill:#555555;" transform="translate(712.845322 319.274092)rotate(-30)scale(0.1 -0.1)">
       <use xlink:href="#DejaVuSans-50"/>
       <use x="63.623047" xlink:href="#DejaVuSans-48"/>
       <use x="127.246094" xlink:href="#DejaVuSans-50"/>
       <use x="190.869141" xlink:href="#DejaVuSans-48"/>
       <use x="254.492188" xlink:href="#DejaVuSans-45"/>
       <use x="290.576172" xlink:href="#DejaVuSans-48"/>
       <use x="354.199219" xlink:href="#DejaVuSans-53"/>
      </g>
     </g>
    </g>
    <g id="xtick_11">
     <g id="line2d_34">
      <path clip-path="url(#pffa0d83f72)" d="M 823.430989 284.802246 
L 823.430989 45.8 
" style="fill:none;stroke:#ffffff;stroke-linecap:square;stroke-width:0.8;"/>
     </g>
     <g id="line2d_35">
      <g>
       <use style="fill:#555555;stroke:#555555;stroke-width:0.8;" x="823.430989" xlink:href="#m337d1a4da5" y="284.802246"/>
      </g>
     </g>
     <g id="text_20">
      <!-- 2020-07 -->
      <g style="fill:#555555;" transform="translate(786.206168 319.274092)rotate(-30)scale(0.1 -0.1)">
       <use xlink:href="#DejaVuSans-50"/>
       <use x="63.623047" xlink:href="#DejaVuSans-48"/>
       <use x="127.246094" xlink:href="#DejaVuSans-50"/>
       <use x="190.869141" xlink:href="#DejaVuSans-48"/>
       <use x="254.492188" xlink:href="#DejaVuSans-45"/>
       <use x="290.576172" xlink:href="#DejaVuSans-48"/>
       <use x="354.199219" xlink:href="#DejaVuSans-55"/>
      </g>
     </g>
    </g>
    <g id="xtick_12">
     <g id="line2d_36">
      <path clip-path="url(#pffa0d83f72)" d="M 897.994472 284.802246 
L 897.994472 45.8 
" style="fill:none;stroke:#ffffff;stroke-linecap:square;stroke-width:0.8;"/>
     </g>
     <g id="line2d_37">
      <g>
       <use style="fill:#555555;stroke:#555555;stroke-width:0.8;" x="897.994472" xlink:href="#m337d1a4da5" y="284.802246"/>
      </g>
     </g>
     <g id="text_21">
      <!-- 2020-09 -->
      <g style="fill:#555555;" transform="translate(860.769651 319.274092)rotate(-30)scale(0.1 -0.1)">
       <use xlink:href="#DejaVuSans-50"/>
       <use x="63.623047" xlink:href="#DejaVuSans-48"/>
       <use x="127.246094" xlink:href="#DejaVuSans-50"/>
       <use x="190.869141" xlink:href="#DejaVuSans-48"/>
       <use x="254.492188" xlink:href="#DejaVuSans-45"/>
       <use x="290.576172" xlink:href="#DejaVuSans-48"/>
       <use x="354.199219" xlink:href="#DejaVuSans-57"/>
      </g>
     </g>
    </g>
    <g id="xtick_13">
     <g id="line2d_38">
      <path clip-path="url(#pffa0d83f72)" d="M 971.355319 284.802246 
L 971.355319 45.8 
" style="fill:none;stroke:#ffffff;stroke-linecap:square;stroke-width:0.8;"/>
     </g>
     <g id="line2d_39">
      <g>
       <use style="fill:#555555;stroke:#555555;stroke-width:0.8;" x="971.355319" xlink:href="#m337d1a4da5" y="284.802246"/>
      </g>
     </g>
     <g id="text_22">
      <!-- 2020-11 -->
      <g style="fill:#555555;" transform="translate(934.130498 319.274092)rotate(-30)scale(0.1 -0.1)">
       <use xlink:href="#DejaVuSans-50"/>
       <use x="63.623047" xlink:href="#DejaVuSans-48"/>
       <use x="127.246094" xlink:href="#DejaVuSans-50"/>
       <use x="190.869141" xlink:href="#DejaVuSans-48"/>
       <use x="254.492188" xlink:href="#DejaVuSans-45"/>
       <use x="290.576172" xlink:href="#DejaVuSans-49"/>
       <use x="354.199219" xlink:href="#DejaVuSans-49"/>
      </g>
     </g>
    </g>
    <g id="xtick_14">
     <g id="line2d_40">
      <path clip-path="url(#pffa0d83f72)" d="M 1044.716165 284.802246 
L 1044.716165 45.8 
" style="fill:none;stroke:#ffffff;stroke-linecap:square;stroke-width:0.8;"/>
     </g>
     <g id="line2d_41">
      <g>
       <use style="fill:#555555;stroke:#555555;stroke-width:0.8;" x="1044.716165" xlink:href="#m337d1a4da5" y="284.802246"/>
      </g>
     </g>
     <g id="text_23">
      <!-- 2021-01 -->
      <g style="fill:#555555;" transform="translate(1007.491344 319.274092)rotate(-30)scale(0.1 -0.1)">
       <use xlink:href="#DejaVuSans-50"/>
       <use x="63.623047" xlink:href="#DejaVuSans-48"/>
       <use x="127.246094" xlink:href="#DejaVuSans-50"/>
       <use x="190.869141" xlink:href="#DejaVuSans-49"/>
       <use x="254.492188" xlink:href="#DejaVuSans-45"/>
       <use x="290.576172" xlink:href="#DejaVuSans-48"/>
       <use x="354.199219" xlink:href="#DejaVuSans-49"/>
      </g>
     </g>
    </g>
    <g id="text_24">
     <!-- Data -->
     <g style="fill:#555555;" transform="translate(809.70637 334.193279)scale(0.12 -0.12)">
      <use xlink:href="#DejaVuSans-68"/>
      <use x="77.001953" xlink:href="#DejaVuSans-97"/>
      <use x="138.28125" xlink:href="#DejaVuSans-116"/>
      <use x="177.490234" xlink:href="#DejaVuSans-97"/>
     </g>
    </g>
   </g>
   <g id="matplotlib.axis_4">
    <g id="ytick_7">
     <g id="line2d_42">
      <path clip-path="url(#pffa0d83f72)" d="M 583.925865 248.971983 
L 1064.13875 248.971983 
" style="fill:none;stroke:#ffffff;stroke-linecap:square;stroke-width:0.8;"/>
     </g>
     <g id="line2d_43">
      <g>
       <use style="fill:#555555;stroke:#555555;stroke-width:0.8;" x="583.925865" xlink:href="#m184bf112ee" y="248.971983"/>
      </g>
     </g>
    </g>
    <g id="ytick_8">
     <g id="line2d_44">
      <path clip-path="url(#pffa0d83f72)" d="M 583.925865 210.143796 
L 1064.13875 210.143796 
" style="fill:none;stroke:#ffffff;stroke-linecap:square;stroke-width:0.8;"/>
     </g>
     <g id="line2d_45">
      <g>
       <use style="fill:#555555;stroke:#555555;stroke-width:0.8;" x="583.925865" xlink:href="#m184bf112ee" y="210.143796"/>
      </g>
     </g>
    </g>
    <g id="ytick_9">
     <g id="line2d_46">
      <path clip-path="url(#pffa0d83f72)" d="M 583.925865 171.315609 
L 1064.13875 171.315609 
" style="fill:none;stroke:#ffffff;stroke-linecap:square;stroke-width:0.8;"/>
     </g>
     <g id="line2d_47">
      <g>
       <use style="fill:#555555;stroke:#555555;stroke-width:0.8;" x="583.925865" xlink:href="#m184bf112ee" y="171.315609"/>
      </g>
     </g>
    </g>
    <g id="ytick_10">
     <g id="line2d_48">
      <path clip-path="url(#pffa0d83f72)" d="M 583.925865 132.487422 
L 1064.13875 132.487422 
" style="fill:none;stroke:#ffffff;stroke-linecap:square;stroke-width:0.8;"/>
     </g>
     <g id="line2d_49">
      <g>
       <use style="fill:#555555;stroke:#555555;stroke-width:0.8;" x="583.925865" xlink:href="#m184bf112ee" y="132.487422"/>
      </g>
     </g>
    </g>
    <g id="ytick_11">
     <g id="line2d_50">
      <path clip-path="url(#pffa0d83f72)" d="M 583.925865 93.659235 
L 1064.13875 93.659235 
" style="fill:none;stroke:#ffffff;stroke-linecap:square;stroke-width:0.8;"/>
     </g>
     <g id="line2d_51">
      <g>
       <use style="fill:#555555;stroke:#555555;stroke-width:0.8;" x="583.925865" xlink:href="#m184bf112ee" y="93.659235"/>
      </g>
     </g>
    </g>
    <g id="ytick_12">
     <g id="line2d_52">
      <path clip-path="url(#pffa0d83f72)" d="M 583.925865 54.831048 
L 1064.13875 54.831048 
" style="fill:none;stroke:#ffffff;stroke-linecap:square;stroke-width:0.8;"/>
     </g>
     <g id="line2d_53">
      <g>
       <use style="fill:#555555;stroke:#555555;stroke-width:0.8;" x="583.925865" xlink:href="#m184bf112ee" y="54.831048"/>
      </g>
     </g>
    </g>
   </g>
   <g id="line2d_54">
    <path clip-path="url(#pffa0d83f72)" d="M 605.753723 60.37183 
L 606.95636 63.734351 
L 610.56427 66.953208 
L 611.766907 67.791897 
L 612.969544 69.403267 
L 614.172181 70.568112 
L 615.374818 72.292084 
L 618.982728 65.217588 
L 620.185365 64.025563 
L 621.388002 68.754836 
L 622.590639 67.628818 
L 623.793275 60.740698 
L 627.401186 59.249696 
L 628.603823 66.378551 
L 629.80646 61.078503 
L 631.009096 56.663738 
L 632.211733 61.136746 
L 635.819644 76.256442 
L 637.022281 68.502453 
L 638.224917 72.750256 
L 639.427554 72.195013 
L 640.630191 79.055954 
L 644.238101 75.685667 
L 645.440738 72.082412 
L 646.643375 70.253604 
L 647.846012 73.507406 
L 649.048649 79.021009 
L 652.656559 83.680391 
L 653.859196 72.804616 
L 655.061833 67.745303 
L 656.26447 71.674716 
L 657.467107 76.648606 
L 661.075017 73.045351 
L 662.277654 74.334446 
L 663.480291 68.351023 
L 664.682928 75.852628 
L 665.885564 79.366579 
L 673.101385 120.901091 
L 674.304022 116.288302 
L 677.911933 106.763748 
L 679.11457 110.988255 
L 680.317206 104.43794 
L 681.519843 123.817088 
L 682.72248 140.264708 
L 686.33039 186.586735 
L 687.533027 162.719049 
L 688.735664 190.065741 
L 689.938301 238.942663 
L 691.140938 199.745608 
L 694.748848 244.436851 
L 695.951485 231.045009 
L 697.154122 261.028135 
L 698.356759 255.448525 
L 699.559396 260.352525 
L 703.167306 273.938508 
L 704.369943 250.024227 
L 705.57258 229.728734 
L 706.775217 219.035451 
L 707.977853 235.657798 
L 711.585764 230.955704 
L 712.788401 237.245871 
L 713.991038 245.217298 
L 715.193674 240.223993 
L 716.396311 250.765845 
L 720.004222 233.157263 
L 722.409495 215.482672 
L 723.612132 219.14417 
L 728.422679 214.663397 
L 729.625316 210.462187 
L 732.03059 218.639404 
L 733.233227 214.065443 
L 736.841137 214.131451 
L 739.246411 207.4763 
L 740.449048 211.413478 
L 741.651685 228.272677 
L 745.259595 216.98144 
L 746.462232 205.049538 
L 747.664869 197.831378 
L 748.867506 208.17909 
L 753.678053 214.508084 
L 754.88069 212.197807 
L 756.083326 213.778115 
L 757.285963 217.447378 
L 758.4886 209.122615 
L 762.096511 213.774232 
L 763.299147 218.406434 
L 764.501784 218.794716 
L 765.704421 213.983904 
L 766.907058 219.629522 
L 770.514968 205.507711 
L 771.717605 207.262745 
L 772.920242 205.022358 
L 774.122879 198.390504 
L 775.325516 201.706431 
L 778.933426 188.155394 
L 780.136063 188.908661 
L 781.3387 179.290919 
L 782.541337 183.162089 
L 783.743974 181.399289 
L 787.351884 176.673899 
L 788.554521 167.254181 
L 789.757158 159.659387 
L 792.162431 153.310979 
L 795.770342 141.63146 
L 796.972979 145.118231 
L 798.175615 153.120721 
L 800.580889 160.463131 
L 804.1888 162.090032 
L 805.391436 157.605376 
L 806.594073 149.777614 
L 807.79671 147.533345 
L 808.999347 145.797725 
L 812.607257 150.596889 
L 813.809894 148.115767 
L 815.012531 154.320512 
L 816.215168 148.084705 
L 817.417805 156.428882 
L 821.025715 149.047644 
L 822.228352 151.684078 
L 823.430989 147.230485 
L 824.633626 147.106235 
L 825.836263 145.048341 
L 829.444173 136.614858 
L 830.64681 141.181053 
L 831.849447 133.38047 
L 833.052083 135.74899 
L 834.25472 132.363172 
L 837.862631 137.546735 
L 839.065268 130.778982 
L 840.267904 125.533294 
L 841.470541 130.340223 
L 842.673178 121.273842 
L 846.281089 115.302067 
L 847.483725 115.752473 
L 848.686362 115.83013 
L 849.888999 123.584119 
L 851.091636 123.238548 
L 854.699546 115.104043 
L 855.902183 116.53292 
L 857.10482 110.724223 
L 858.307457 113.038383 
L 859.510094 121.180654 
L 863.118004 121.499045 
L 864.320641 127.765915 
L 865.523278 121.607764 
L 866.725915 116.466912 
L 867.928552 121.708717 
L 871.536462 119.114994 
L 872.739099 124.046174 
L 873.941736 124.263612 
L 875.144372 130.697443 
L 876.347009 127.233968 
L 879.95492 134.059964 
L 881.157557 124.469401 
L 882.360193 129.171495 
L 883.56283 126.787444 
L 884.765467 126.581655 
L 888.373378 123.564705 
L 889.576014 124.263612 
L 890.778651 130.052895 
L 891.981288 130.064543 
L 893.183925 124.166542 
L 896.791835 134.937481 
L 897.994472 124.069471 
L 899.197109 125.067356 
L 900.399746 129.68791 
L 901.602383 127.664961 
L 906.41293 132.293281 
L 907.615567 127.47082 
L 908.818204 137.010906 
L 910.02084 138.843596 
L 913.628751 131.419647 
L 914.831388 131.330342 
L 916.034025 133.745455 
L 917.236661 132.106906 
L 918.439298 139.127042 
L 922.047209 144.170824 
L 923.249846 142.99433 
L 924.452482 149.047644 
L 925.655119 144.089284 
L 926.857756 144.139761 
L 930.465667 153.198377 
L 931.668303 157.415118 
L 932.87094 153.442995 
L 934.073577 150.041645 
L 935.276214 155.722209 
L 938.884124 147.673126 
L 940.086761 149.513582 
L 941.289398 149.859153 
L 942.492035 140.563685 
L 943.694672 142.260477 
L 948.505219 138.300002 
L 949.707856 135.073379 
L 950.910493 136.160569 
L 952.113129 139.053269 
L 955.72104 137.698165 
L 956.923677 130.3907 
L 958.126314 130.344106 
L 959.32895 125.040176 
L 960.531587 127.595071 
L 964.139498 128.538595 
L 965.342135 134.017253 
L 966.544771 150.468756 
L 967.747408 145.758896 
L 968.950045 155.97071 
L 973.760592 149.622301 
L 974.963229 140.986912 
L 976.165866 129.48212 
L 977.368503 129.38505 
L 980.976413 117.293953 
L 982.17905 111.710459 
L 983.381687 114.890488 
L 984.584324 124.042291 
L 985.786961 114.968144 
L 989.394871 107.520898 
L 990.597508 104.418526 
L 991.800145 107.315108 
L 993.002782 107.183093 
L 997.813329 103.836103 
L 999.015966 94.490158 
L 1000.218603 93.14282 
L 1001.421239 92.777835 
L 1002.623876 91.426614 
L 1006.231787 97.976929 
L 1007.434424 88.475672 
L 1008.63706 86.615802 
L 1009.839697 82.325287 
L 1011.042334 79.362697 
L 1014.650245 79.584017 
L 1015.852881 79.793689 
L 1017.055518 83.090203 
L 1018.258155 74.276204 
L 1019.460792 72.990991 
L 1023.068702 74.342212 
L 1024.271339 69.795431 
L 1025.473976 62.802475 
L 1026.676613 61.987083 
L 1027.87925 63.84307 
L 1031.48716 70.300198 
L 1032.689797 69.011102 
L 1033.892434 63.151929 
L 1039.905618 58.515843 
L 1041.108255 56.869528 
L 1042.310892 57.525724 
L 1042.310892 57.525724 
" style="fill:none;stroke:#ff0000;stroke-linecap:square;stroke-width:1.5;"/>
   </g>
   <g id="patch_8">
    <path d="M 583.925865 284.802246 
L 583.925865 45.8 
" style="fill:none;stroke:#ffffff;stroke-linecap:square;stroke-linejoin:miter;"/>
   </g>
   <g id="patch_9">
    <path d="M 1064.13875 284.802246 
L 1064.13875 45.8 
" style="fill:none;stroke:#ffffff;stroke-linecap:square;stroke-linejoin:miter;"/>
   </g>
   <g id="patch_10">
    <path d="M 583.925865 284.802246 
L 1064.13875 284.802246 
" style="fill:none;stroke:#ffffff;stroke-linecap:square;stroke-linejoin:miter;"/>
   </g>
   <g id="patch_11">
    <path d="M 583.925865 45.8 
L 1064.13875 45.8 
" style="fill:none;stroke:#ffffff;stroke-linecap:square;stroke-linejoin:miter;"/>
   </g>
   <g id="text_25">
    <!-- 2020 -->
    <g transform="translate(805.708307 39.8)scale(0.144 -0.144)">
     <use xlink:href="#DejaVuSans-50"/>
     <use x="63.623047" xlink:href="#DejaVuSans-48"/>
     <use x="127.246094" xlink:href="#DejaVuSans-50"/>
     <use x="190.869141" xlink:href="#DejaVuSans-48"/>
    </g>
   </g>
  </g>
  <g id="text_26">
   <!-- Índice Bovespa (Gráfico 1) -->
   <defs>
    <path d="M 9.8125 72.90625 
L 19.671875 72.90625 
L 19.671875 0 
L 9.8125 0 
z
M 17.484375 92.734375 
L 26.515625 92.734375 
L 15.375 79.84375 
L 7.90625 79.84375 
z
" id="DejaVuSans-205"/>
    <path d="M 45.40625 46.390625 
L 45.40625 75.984375 
L 54.390625 75.984375 
L 54.390625 0 
L 45.40625 0 
L 45.40625 8.203125 
Q 42.578125 3.328125 38.25 0.953125 
Q 33.9375 -1.421875 27.875 -1.421875 
Q 17.96875 -1.421875 11.734375 6.484375 
Q 5.515625 14.40625 5.515625 27.296875 
Q 5.515625 40.1875 11.734375 48.09375 
Q 17.96875 56 27.875 56 
Q 33.9375 56 38.25 53.625 
Q 42.578125 51.265625 45.40625 46.390625 
z
M 14.796875 27.296875 
Q 14.796875 17.390625 18.875 11.75 
Q 22.953125 6.109375 30.078125 6.109375 
Q 37.203125 6.109375 41.296875 11.75 
Q 45.40625 17.390625 45.40625 27.296875 
Q 45.40625 37.203125 41.296875 42.84375 
Q 37.203125 48.484375 30.078125 48.484375 
Q 22.953125 48.484375 18.875 42.84375 
Q 14.796875 37.203125 14.796875 27.296875 
z
" id="DejaVuSans-100"/>
    <path d="M 9.421875 54.6875 
L 18.40625 54.6875 
L 18.40625 0 
L 9.421875 0 
z
M 9.421875 75.984375 
L 18.40625 75.984375 
L 18.40625 64.59375 
L 9.421875 64.59375 
z
" id="DejaVuSans-105"/>
    <path d="M 48.78125 52.59375 
L 48.78125 44.1875 
Q 44.96875 46.296875 41.140625 47.34375 
Q 37.3125 48.390625 33.40625 48.390625 
Q 24.65625 48.390625 19.8125 42.84375 
Q 14.984375 37.3125 14.984375 27.296875 
Q 14.984375 17.28125 19.8125 11.734375 
Q 24.65625 6.203125 33.40625 6.203125 
Q 37.3125 6.203125 41.140625 7.25 
Q 44.96875 8.296875 48.78125 10.40625 
L 48.78125 2.09375 
Q 45.015625 0.34375 40.984375 -0.53125 
Q 36.96875 -1.421875 32.421875 -1.421875 
Q 20.0625 -1.421875 12.78125 6.34375 
Q 5.515625 14.109375 5.515625 27.296875 
Q 5.515625 40.671875 12.859375 48.328125 
Q 20.21875 56 33.015625 56 
Q 37.15625 56 41.109375 55.140625 
Q 45.0625 54.296875 48.78125 52.59375 
z
" id="DejaVuSans-99"/>
    <path d="M 56.203125 29.59375 
L 56.203125 25.203125 
L 14.890625 25.203125 
Q 15.484375 15.921875 20.484375 11.0625 
Q 25.484375 6.203125 34.421875 6.203125 
Q 39.59375 6.203125 44.453125 7.46875 
Q 49.3125 8.734375 54.109375 11.28125 
L 54.109375 2.78125 
Q 49.265625 0.734375 44.1875 -0.34375 
Q 39.109375 -1.421875 33.890625 -1.421875 
Q 20.796875 -1.421875 13.15625 6.1875 
Q 5.515625 13.8125 5.515625 26.8125 
Q 5.515625 40.234375 12.765625 48.109375 
Q 20.015625 56 32.328125 56 
Q 43.359375 56 49.78125 48.890625 
Q 56.203125 41.796875 56.203125 29.59375 
z
M 47.21875 32.234375 
Q 47.125 39.59375 43.09375 43.984375 
Q 39.0625 48.390625 32.421875 48.390625 
Q 24.90625 48.390625 20.390625 44.140625 
Q 15.875 39.890625 15.1875 32.171875 
z
" id="DejaVuSans-101"/>
    <path id="DejaVuSans-32"/>
    <path d="M 19.671875 34.8125 
L 19.671875 8.109375 
L 35.5 8.109375 
Q 43.453125 8.109375 47.28125 11.40625 
Q 51.125 14.703125 51.125 21.484375 
Q 51.125 28.328125 47.28125 31.5625 
Q 43.453125 34.8125 35.5 34.8125 
z
M 19.671875 64.796875 
L 19.671875 42.828125 
L 34.28125 42.828125 
Q 41.5 42.828125 45.03125 45.53125 
Q 48.578125 48.25 48.578125 53.8125 
Q 48.578125 59.328125 45.03125 62.0625 
Q 41.5 64.796875 34.28125 64.796875 
z
M 9.8125 72.90625 
L 35.015625 72.90625 
Q 46.296875 72.90625 52.390625 68.21875 
Q 58.5 63.53125 58.5 54.890625 
Q 58.5 48.1875 55.375 44.234375 
Q 52.25 40.28125 46.1875 39.3125 
Q 53.46875 37.75 57.5 32.78125 
Q 61.53125 27.828125 61.53125 20.40625 
Q 61.53125 10.640625 54.890625 5.3125 
Q 48.25 0 35.984375 0 
L 9.8125 0 
z
" id="DejaVuSans-66"/>
    <path d="M 2.984375 54.6875 
L 12.5 54.6875 
L 29.59375 8.796875 
L 46.6875 54.6875 
L 56.203125 54.6875 
L 35.6875 0 
L 23.484375 0 
z
" id="DejaVuSans-118"/>
    <path d="M 18.109375 8.203125 
L 18.109375 -20.796875 
L 9.078125 -20.796875 
L 9.078125 54.6875 
L 18.109375 54.6875 
L 18.109375 46.390625 
Q 20.953125 51.265625 25.265625 53.625 
Q 29.59375 56 35.59375 56 
Q 45.5625 56 51.78125 48.09375 
Q 58.015625 40.1875 58.015625 27.296875 
Q 58.015625 14.40625 51.78125 6.484375 
Q 45.5625 -1.421875 35.59375 -1.421875 
Q 29.59375 -1.421875 25.265625 0.953125 
Q 20.953125 3.328125 18.109375 8.203125 
z
M 48.6875 27.296875 
Q 48.6875 37.203125 44.609375 42.84375 
Q 40.53125 48.484375 33.40625 48.484375 
Q 26.265625 48.484375 22.1875 42.84375 
Q 18.109375 37.203125 18.109375 27.296875 
Q 18.109375 17.390625 22.1875 11.75 
Q 26.265625 6.109375 33.40625 6.109375 
Q 40.53125 6.109375 44.609375 11.75 
Q 48.6875 17.390625 48.6875 27.296875 
z
" id="DejaVuSans-112"/>
    <path d="M 31 75.875 
Q 24.46875 64.65625 21.28125 53.65625 
Q 18.109375 42.671875 18.109375 31.390625 
Q 18.109375 20.125 21.3125 9.0625 
Q 24.515625 -2 31 -13.1875 
L 23.1875 -13.1875 
Q 15.875 -1.703125 12.234375 9.375 
Q 8.59375 20.453125 8.59375 31.390625 
Q 8.59375 42.28125 12.203125 53.3125 
Q 15.828125 64.359375 23.1875 75.875 
z
" id="DejaVuSans-40"/>
    <path d="M 59.515625 10.40625 
L 59.515625 29.984375 
L 43.40625 29.984375 
L 43.40625 38.09375 
L 69.28125 38.09375 
L 69.28125 6.78125 
Q 63.578125 2.734375 56.6875 0.65625 
Q 49.8125 -1.421875 42 -1.421875 
Q 24.90625 -1.421875 15.25 8.5625 
Q 5.609375 18.5625 5.609375 36.375 
Q 5.609375 54.25 15.25 64.234375 
Q 24.90625 74.21875 42 74.21875 
Q 49.125 74.21875 55.546875 72.453125 
Q 61.96875 70.703125 67.390625 67.28125 
L 67.390625 56.78125 
Q 61.921875 61.421875 55.765625 63.765625 
Q 49.609375 66.109375 42.828125 66.109375 
Q 29.4375 66.109375 22.71875 58.640625 
Q 16.015625 51.171875 16.015625 36.375 
Q 16.015625 21.625 22.71875 14.15625 
Q 29.4375 6.6875 42.828125 6.6875 
Q 48.046875 6.6875 52.140625 7.59375 
Q 56.25 8.5 59.515625 10.40625 
z
" id="DejaVuSans-71"/>
    <path d="M 41.109375 46.296875 
Q 39.59375 47.171875 37.8125 47.578125 
Q 36.03125 48 33.890625 48 
Q 26.265625 48 22.1875 43.046875 
Q 18.109375 38.09375 18.109375 28.8125 
L 18.109375 0 
L 9.078125 0 
L 9.078125 54.6875 
L 18.109375 54.6875 
L 18.109375 46.1875 
Q 20.953125 51.171875 25.484375 53.578125 
Q 30.03125 56 36.53125 56 
Q 37.453125 56 38.578125 55.875 
Q 39.703125 55.765625 41.0625 55.515625 
z
" id="DejaVuSans-114"/>
    <path d="M 34.28125 27.484375 
Q 23.390625 27.484375 19.1875 25 
Q 14.984375 22.515625 14.984375 16.5 
Q 14.984375 11.71875 18.140625 8.90625 
Q 21.296875 6.109375 26.703125 6.109375 
Q 34.1875 6.109375 38.703125 11.40625 
Q 43.21875 16.703125 43.21875 25.484375 
L 43.21875 27.484375 
z
M 52.203125 31.203125 
L 52.203125 0 
L 43.21875 0 
L 43.21875 8.296875 
Q 40.140625 3.328125 35.546875 0.953125 
Q 30.953125 -1.421875 24.3125 -1.421875 
Q 15.921875 -1.421875 10.953125 3.296875 
Q 6 8.015625 6 15.921875 
Q 6 25.140625 12.171875 29.828125 
Q 18.359375 34.515625 30.609375 34.515625 
L 43.21875 34.515625 
L 43.21875 35.40625 
Q 43.21875 41.609375 39.140625 45 
Q 35.0625 48.390625 27.6875 48.390625 
Q 23 48.390625 18.546875 47.265625 
Q 14.109375 46.140625 10.015625 43.890625 
L 10.015625 52.203125 
Q 14.9375 54.109375 19.578125 55.046875 
Q 24.21875 56 28.609375 56 
Q 40.484375 56 46.34375 49.84375 
Q 52.203125 43.703125 52.203125 31.203125 
z
M 35.796875 79.984375 
L 45.515625 79.984375 
L 29.59375 61.625 
L 22.125 61.625 
z
" id="DejaVuSans-225"/>
    <path d="M 37.109375 75.984375 
L 37.109375 68.5 
L 28.515625 68.5 
Q 23.6875 68.5 21.796875 66.546875 
Q 19.921875 64.59375 19.921875 59.515625 
L 19.921875 54.6875 
L 34.71875 54.6875 
L 34.71875 47.703125 
L 19.921875 47.703125 
L 19.921875 0 
L 10.890625 0 
L 10.890625 47.703125 
L 2.296875 47.703125 
L 2.296875 54.6875 
L 10.890625 54.6875 
L 10.890625 58.5 
Q 10.890625 67.625 15.140625 71.796875 
Q 19.390625 75.984375 28.609375 75.984375 
z
" id="DejaVuSans-102"/>
    <path d="M 8.015625 75.875 
L 15.828125 75.875 
Q 23.140625 64.359375 26.78125 53.3125 
Q 30.421875 42.28125 30.421875 31.390625 
Q 30.421875 20.453125 26.78125 9.375 
Q 23.140625 -1.703125 15.828125 -13.1875 
L 8.015625 -13.1875 
Q 14.5 -2 17.703125 9.0625 
Q 20.90625 20.125 20.90625 31.390625 
Q 20.90625 42.671875 17.703125 53.65625 
Q 14.5 64.65625 8.015625 75.875 
z
" id="DejaVuSans-41"/>
   </defs>
   <g transform="translate(442.254375 20.182812)scale(0.14 -0.14)">
    <use xlink:href="#DejaVuSans-205"/>
    <use x="29.492188" xlink:href="#DejaVuSans-110"/>
    <use x="92.871094" xlink:href="#DejaVuSans-100"/>
    <use x="156.347656" xlink:href="#DejaVuSans-105"/>
    <use x="184.130859" xlink:href="#DejaVuSans-99"/>
    <use x="239.111328" xlink:href="#DejaVuSans-101"/>
    <use x="300.634766" xlink:href="#DejaVuSans-32"/>
    <use x="332.421875" xlink:href="#DejaVuSans-66"/>
    <use x="401.025391" xlink:href="#DejaVuSans-111"/>
    <use x="462.207031" xlink:href="#DejaVuSans-118"/>
    <use x="521.386719" xlink:href="#DejaVuSans-101"/>
    <use x="582.910156" xlink:href="#DejaVuSans-115"/>
    <use x="635.009766" xlink:href="#DejaVuSans-112"/>
    <use x="698.486328" xlink:href="#DejaVuSans-97"/>
    <use x="759.765625" xlink:href="#DejaVuSans-32"/>
    <use x="791.552734" xlink:href="#DejaVuSans-40"/>
    <use x="830.566406" xlink:href="#DejaVuSans-71"/>
    <use x="908.056641" xlink:href="#DejaVuSans-114"/>
    <use x="949.169922" xlink:href="#DejaVuSans-225"/>
    <use x="1010.449219" xlink:href="#DejaVuSans-102"/>
    <use x="1045.654297" xlink:href="#DejaVuSans-105"/>
    <use x="1073.4375" xlink:href="#DejaVuSans-99"/>
    <use x="1128.417969" xlink:href="#DejaVuSans-111"/>
    <use x="1189.599609" xlink:href="#DejaVuSans-32"/>
    <use x="1221.386719" xlink:href="#DejaVuSans-49"/>
    <use x="1285.009766" xlink:href="#DejaVuSans-41"/>
   </g>
  </g>
 </g>
 <defs>
  <clipPath id="p51f11b45f7">
   <rect height="239.002246" width="480.212885" x="67.98875" y="45.8"/>
  </clipPath>
  <clipPath id="pffa0d83f72">
   <rect height="239.002246" width="480.212885" x="583.925865" y="45.8"/>
  </clipPath>
 </defs>
</svg>
